<svg xmlns="http://www.w3.org/2000/svg" width="210.766" height="85.231" viewBox="0 0 210.766 85.231"><g transform="translate(-0.495 9.982)"><g transform="translate(1.5 -9.982)"><path d="M37.514,4.762A14.213,14.213,0,0,0,29.217,2a13.149,13.149,0,0,0-8.642,2.992,12.919,12.919,0,0,0-4.148,6.79c-.114,1.038-.245,2.392-.351,3.979-.045.677-.2,3.121-.2,6.495,0,2.35.067,5.309.325,8.746a14.8,14.8,0,0,0,3.342,8.4c.129.15.259.293.39.433a12.832,12.832,0,0,0,8.6,4.171A13.04,13.04,0,0,0,39.7,38.137" transform="translate(-6.235 6.034)" fill="none" stroke="#2e2e2d" stroke-linecap="round" stroke-linejoin="round" stroke-width="2"/><path d="M23.716,85.05q-6.876,0-13.751,0c-1.49,0-2.862-.283-3.728-1.655a3.14,3.14,0,0,1,2.79-4.777c3.076-.123,6.162-.105,9.24-.02,1.651.046,2.291-.54,2.248-2.212-.085-3.3-.047-6.612-.02-9.918A1.9,1.9,0,0,0,18.779,64.3C8.311,61.8.294,52.966,1.65,37.789c.115-1.3.573-2.452,2.117-2.413,1.523.04,1.949,1.159,2.01,2.494.13,2.844-.2,5.7.382,8.537a17.654,17.654,0,0,0,4.57,8.848,18.21,18.21,0,0,0,15.482,5.294c1.419-.211,8.365-1.246,11.07-6.024.691-1.222,1.457-3.309,2.891-3.423a2.288,2.288,0,0,1,2.089,1.3c.873,1.9-1.616,4.932-3.369,6.5a27.567,27.567,0,0,1-9.808,5.276c-1.71.366-2.162,1.173-2.118,2.773.087,3.153.1,6.313,0,9.466-.052,1.7.609,2.24,2.247,2.189,2.927-.092,5.86-.053,8.791-.01,2.314.034,3.688,1.159,3.8,2.993a3.075,3.075,0,0,1-.28,1.511c-.177.378-.787,1.4-3.379,1.918-4.377.881-13.342.133-14.426.04" transform="translate(-1.5 -4.963)" fill="#2e2e2d"/><path d="M23.716,85.05q-6.876,0-13.751,0c-1.49,0-2.862-.283-3.728-1.655a3.14,3.14,0,0,1,2.79-4.777c3.076-.123,6.162-.105,9.24-.02,1.651.046,2.291-.54,2.248-2.212-.085-3.3-.047-6.612-.02-9.918A1.9,1.9,0,0,0,18.779,64.3C8.311,61.8.294,52.966,1.65,37.789c.115-1.3.573-2.452,2.117-2.413,1.523.04,1.949,1.159,2.01,2.494.13,2.844-.2,5.7.382,8.537a17.654,17.654,0,0,0,4.57,8.848,18.21,18.21,0,0,0,15.482,5.294c1.419-.211,8.365-1.246,11.07-6.024.691-1.222,1.457-3.309,2.891-3.423a2.288,2.288,0,0,1,2.089,1.3c.873,1.9-1.616,4.932-3.369,6.5a27.567,27.567,0,0,1-9.808,5.276c-1.71.366-2.162,1.173-2.118,2.773.087,3.153.1,6.313,0,9.466-.052,1.7.609,2.24,2.247,2.189,2.927-.092,5.86-.053,8.791-.01,2.314.034,3.688,1.159,3.8,2.993a3.075,3.075,0,0,1-.28,1.511c-.177.378-.787,1.4-3.379,1.918C33.765,85.891,24.8,85.143,23.716,85.05Z" transform="translate(-1.5 -4.963)" fill="none" stroke="#f4f3f3" stroke-miterlimit="10" stroke-width="2"/><path d="M44.217,31.085a10.943,10.943,0,0,1-11.742,1.263" transform="translate(-11.706 -3.549)" fill="none" stroke="#ea5f2d" stroke-linecap="round" stroke-miterlimit="10" stroke-width="2"/><path d="M43.959,19.867A10.943,10.943,0,0,1,32.217,21.13" transform="translate(-11.621 0.147)" fill="none" stroke="#ea5f2d" stroke-linecap="round" stroke-miterlimit="10" stroke-width="2"/><path d="M44.217,41.613a10.943,10.943,0,0,1-11.742,1.263" transform="translate(-11.706 -7.018)" fill="none" stroke="#ea5f2d" stroke-linecap="round" stroke-miterlimit="10" stroke-width="2"/><text transform="translate(56.761 34)" fill="#2e2e2d" font-size="32" font-family="Poppins-Regular, Poppins"><tspan x="0" y="0">Studio</tspan></text><text transform="translate(56.761 74.231)" fill="#2e2e2d" font-size="32" font-family="Poppins-Regular, Poppins"><tspan x="0" y="0">Scharnier</tspan></text></g></g></svg>